<svg width="1439" height="105" viewBox="0 0 1439 105" fill="none" xmlns="http://www.w3.org/2000/svg">
<path d="M0 73.3492V0.364921L1439 0V73.7141C1433 76.9984 1401.68 55.1903 1354.46 94.016C1314.66 126.745 1215.96 75.9036 1190.77 75.9036C1149.78 75.9036 1144.01 102.038 1062.16 75.9036C1029.78 65.5648 991.111 102.676 969.077 95.6204C941.646 89.0518 898.116 65.8267 869.696 79.2558C834.17 96.0422 806.345 105.009 751.428 81.0126C739.736 75.9036 718.601 67.7044 692.968 75.9036C685.624 78.9447 674.621 85.0579 656.993 88.5612C634.959 92.9402 624.166 65.7791 590.889 75.9036C520.152 97.4257 519.839 58.4743 492.408 73.801C470.463 86.0623 457.332 89.6099 441.593 85.3524C434.998 83.4062 418.749 78.672 406.518 79.2558C391.228 79.9857 371.892 89.0408 352.105 99.2586C332.319 109.476 338.165 88.8949 290.948 72.8384C253.174 59.9931 240.939 88.8073 190.668 82.1437C160.089 78.0904 140.752 65.4583 116.019 75.7262C97.0881 83.5857 106.126 91.5866 89.0381 95.9413C57.56 103.963 63.6758 86.1944 43.17 73.3492C22.6643 60.504 10.4927 67.997 0 73.3492Z" fill="#B4D7FF"/>
</svg>
