<svg width="1440" height="105" viewBox="0 0 1440 105" fill="none" xmlns="http://www.w3.org/2000/svg">
<path d="M1440 31.5289L1440 104.232L-0.000244141 104.596L-0.000253255 31.1654C5.99975 27.8938 37.3497 49.6179 84.5997 10.9417C124.43 -21.6615 223.2 28.9843 248.4 28.9843C289.426 28.9843 295.2 2.95069 377.1 28.9843C409.5 39.2833 448.2 2.31546 470.25 9.34345C497.7 15.8867 541.26 39.0224 569.7 25.645C605.25 8.92325 633.095 -0.00915136 688.05 23.8951C699.75 28.9843 720.9 37.152 746.55 28.9843C753.9 25.955 764.91 19.8652 782.55 16.3755C804.6 12.0133 815.4 39.0698 848.7 28.9843C919.487 7.54511 919.8 46.3465 947.25 31.0788C969.21 18.8647 982.35 15.3308 998.1 19.5719C1004.7 21.5106 1020.96 26.2266 1033.2 25.645C1048.5 24.9179 1067.85 15.8977 1087.65 5.71921C1107.45 -4.45926 1101.6 16.043 1148.85 32.0378C1186.65 44.8335 1198.89 16.1303 1249.2 22.7682C1279.8 26.8059 1299.15 39.3894 1323.9 29.161C1342.84 21.3318 1333.8 13.3617 1350.9 9.02376C1382.4 1.03279 1376.28 18.7331 1396.8 31.5289C1417.32 44.3247 1429.5 36.8604 1440 31.5289Z" fill="#FFDBEA"/>
</svg>
